<?xml version="1.0" encoding="UTF-8"?>
<svg width="72px" height="72px" viewBox="0 0 72 72" version="1.1" xmlns="http://www.w3.org/2000/svg" xmlns:xlink="http://www.w3.org/1999/xlink">
    <title>58BC1E2A-C3ED-4698-8C10-FDCDBF211038</title>
    <g id="Shared-Design" stroke="none" stroke-width="1" fill="none" fill-rule="evenodd">
        <g id="HG-Concepts---Shared-Page-XL" transform="translate(-423.000000, -1370.000000)">
            <g id="StorageIcon" transform="translate(423.000000, 1370.000000)">
                <polygon id="Oval-Copy-2" fill="#FF9144" transform="translate(36.000000, 36.000000) scale(-1, -1) translate(-36.000000, -36.000000) " points="72 72 72 -1.91846539e-12 -1.00897068e-12 0.5"></polygon>
                <path d="M25.5,6 L25.5,18.5 L38,18.5 L38,25.5 L25.5,25.5 L25.5,38 L18.5,38 L18.5,25.499 L6,25.5 L6,18.5 L18.5,18.499 L18.5,6 L25.5,6 Z" id="Combined-Shape" fill="#1F2044"></path>
                <polygon id="Path-4-Copy-3" fill="#1F2044" fill-rule="nonzero" transform="translate(34.500000, 43.254237) rotate(-360.000000) translate(-34.500000, -43.254237) " points="41 29.5084746 69 57 11.3893769 57 1.03028697e-12 44.39737 0.0370246543 34.1186441 14.0458172 49.8813559 54.2293072 50.3898305 33.8322738 29.5084746"></polygon>
                <polygon id="Path-4-Copy-4" fill="#1F2044" fill-rule="nonzero" transform="translate(36.000000, 61.000000) rotate(-360.000000) translate(-36.000000, -61.000000) " points="53.1086524 51.4772026 72 71.4888889 10.3893769 72 1.02318154e-12 60.332023 0.0370246543 50 14.0458172 65.8444444 59.2293072 65.8444444 45.6621255 51.4282169"></polygon>
            </g>
        </g>
    </g>
</svg>